<?xml version="1.0" encoding="UTF-8"?>
<!DOCTYPE svg PUBLIC "-//W3C//DTD SVG 1.1//EN" "http://www.w3.org/Graphics/SVG/1.1/DTD/svg11.dtd">
<svg xmlns="http://www.w3.org/2000/svg" version="1.1" width="500px" height="500px" style="shape-rendering:geometricPrecision; text-rendering:geometricPrecision; image-rendering:optimizeQuality; fill-rule:evenodd; clip-rule:evenodd" xmlns:xlink="http://www.w3.org/1999/xlink">
<g><path style="opacity:0.743" fill="#775179" d="M 208.5,185.5 C 202.158,185.334 195.825,185.5 189.5,186C 188.248,187.828 188.248,189.661 189.5,191.5C 188.275,190.848 187.608,189.681 187.5,188C 187.309,186.027 187.976,184.527 189.5,183.5C 194.328,183.469 199.328,183.635 204.5,184C 206.058,184.21 207.391,184.71 208.5,185.5 Z"/></g>
<g><path style="opacity:0.83" fill="#895981" d="M 190.5,191.5 C 190.833,191.5 191.167,191.5 191.5,191.5C 191.666,198.175 191.5,204.842 191,211.5C 188.961,212.978 188.128,214.978 188.5,217.5C 197.278,217.916 205.944,217.249 214.5,215.5C 211.281,217.718 207.614,218.885 203.5,219C 198.136,219.829 192.802,219.663 187.5,218.5C 187.069,217.707 186.735,216.873 186.5,216C 187.471,212.741 188.804,209.741 190.5,207C 189.21,201.826 189.21,196.659 190.5,191.5 Z"/></g>
<g><path style="opacity:0.933" fill="#bc659c" d="M 237.5,193.5 C 239.369,195.635 240.036,198.302 239.5,201.5C 237.821,201.285 236.821,201.952 236.5,203.5C 236.167,203.5 235.833,203.5 235.5,203.5C 235.5,202.5 235.5,201.5 235.5,200.5C 236.5,200.5 237.5,200.5 238.5,200.5C 238.799,198.396 238.466,196.396 237.5,194.5C 235.807,196.027 233.973,197.36 232,198.5C 231.517,197.552 231.351,196.552 231.5,195.5C 228.833,195.5 226.167,195.5 223.5,195.5C 224.852,198.781 225.519,202.281 225.5,206C 225.494,208.033 225.161,209.866 224.5,211.5C 224.35,206.088 223.683,200.754 222.5,195.5C 222.611,194.883 222.944,194.383 223.5,194C 227.118,193.034 230.451,193.534 233.5,195.5C 234.622,194.37 235.956,193.703 237.5,193.5 Z"/></g>
<g><path style="opacity:1" fill="#e46dba" d="M 208.5,185.5 C 214.64,186.31 218.64,189.643 220.5,195.5C 220.666,199.514 220.499,203.514 220,207.5C 219.722,208.416 219.222,209.082 218.5,209.5C 220.884,202.698 219.384,197.032 214,192.5C 212.847,195.711 212.18,199.044 212,202.5C 211.329,203.252 210.496,203.586 209.5,203.5C 209.795,201.265 209.461,199.265 208.5,197.5C 208.5,197.167 208.5,196.833 208.5,196.5C 207.864,194.205 206.531,192.539 204.5,191.5C 206.816,192.36 209.149,192.86 211.5,193C 211.167,192.667 210.833,192.333 210.5,192C 211.833,191.667 213.167,191.333 214.5,191C 213.167,190.333 212.167,189.333 211.5,188C 204.589,186.616 197.589,186.116 190.5,186.5C 190.366,188.292 190.699,189.958 191.5,191.5C 191.167,191.5 190.833,191.5 190.5,191.5C 190.167,191.5 189.833,191.5 189.5,191.5C 188.248,189.661 188.248,187.828 189.5,186C 195.825,185.5 202.158,185.334 208.5,185.5 Z"/></g>
<g><path style="opacity:0.902" fill="#804e70" d="M 237.5,193.5 C 238.209,192.596 239.209,192.263 240.5,192.5C 241.553,195.852 241.553,199.185 240.5,202.5C 239.264,203.246 237.93,203.579 236.5,203.5C 236.821,201.952 237.821,201.285 239.5,201.5C 240.036,198.302 239.369,195.635 237.5,193.5 Z"/></g>
<g><path style="opacity:0.278" fill="#5a3558" d="M 235.5,203.5 C 233.851,207.44 234.518,210.94 237.5,214C 237.43,214.765 237.097,215.265 236.5,215.5C 236.5,214.833 236.167,214.5 235.5,214.5C 234.108,212.443 233.441,210.109 233.5,207.5C 233.585,205.667 234.252,204.334 235.5,203.5 Z"/></g>
<g><path style="opacity:0.012" fill="#200918" d="M 220.5,195.5 C 221.167,195.5 221.833,195.5 222.5,195.5C 223.683,200.754 224.35,206.088 224.5,211.5C 222.656,213.279 221.99,215.612 222.5,218.5C 221.113,216.123 220.279,213.457 220,210.5C 219.623,211.942 218.79,212.942 217.5,213.5C 217.232,211.901 217.566,210.568 218.5,209.5C 219.222,209.082 219.722,208.416 220,207.5C 220.499,203.514 220.666,199.514 220.5,195.5 Z"/></g>
<g><path style="opacity:1" fill="#f968c1" d="M 235.5,203.5 C 234.252,204.334 233.585,205.667 233.5,207.5C 233.441,210.109 234.108,212.443 235.5,214.5C 235.5,215.5 235.5,216.5 235.5,217.5C 231.5,217.5 227.5,217.5 223.5,217.5C 223.325,215.379 223.659,213.379 224.5,211.5C 225.161,209.866 225.494,208.033 225.5,206C 225.519,202.281 224.852,198.781 223.5,195.5C 226.167,195.5 228.833,195.5 231.5,195.5C 231.351,196.552 231.517,197.552 232,198.5C 233.973,197.36 235.807,196.027 237.5,194.5C 238.466,196.396 238.799,198.396 238.5,200.5C 237.5,200.5 236.5,200.5 235.5,200.5C 235.5,201.5 235.5,202.5 235.5,203.5 Z"/></g>
<g><path style="opacity:0.004" fill="#050603" d="M 238.5,211.5 C 239.833,212.167 239.833,212.167 238.5,211.5 Z"/></g>
<g><path style="opacity:1" fill="#f365be" d="M 204.5,191.5 C 203.5,191.5 202.5,191.5 201.5,191.5C 201.5,198.167 201.5,204.833 201.5,211.5C 203.698,211.88 205.365,211.213 206.5,209.5C 207.906,209.027 208.573,208.027 208.5,206.5C 208.5,206.167 208.5,205.833 208.5,205.5C 209.338,205.158 209.672,204.492 209.5,203.5C 210.496,203.586 211.329,203.252 212,202.5C 212.18,199.044 212.847,195.711 214,192.5C 219.384,197.032 220.884,202.698 218.5,209.5C 217.566,210.568 217.232,211.901 217.5,213.5C 216.5,214.167 215.5,214.833 214.5,215.5C 205.944,217.249 197.278,217.916 188.5,217.5C 188.128,214.978 188.961,212.978 191,211.5C 191.5,204.842 191.666,198.175 191.5,191.5C 190.699,189.958 190.366,188.292 190.5,186.5C 197.589,186.116 204.589,186.616 211.5,188C 212.167,189.333 213.167,190.333 214.5,191C 213.167,191.333 211.833,191.667 210.5,192C 210.833,192.333 211.167,192.667 211.5,193C 209.149,192.86 206.816,192.36 204.5,191.5 Z M 208.5,196.5 C 208.5,196.833 208.5,197.167 208.5,197.5C 208.031,199.995 208.031,202.661 208.5,205.5C 208.5,205.833 208.5,206.167 208.5,206.5C 207.094,206.973 206.427,207.973 206.5,209.5C 205.167,209.5 203.833,209.5 202.5,209.5C 202.335,206.15 202.502,202.817 203,199.5C 203.333,199.833 203.667,200.167 204,200.5C 204.45,197.894 205.95,196.561 208.5,196.5 Z"/></g>
<g><path style="opacity:0.039" fill="#221323" d="M 208.5,206.5 C 208.573,208.027 207.906,209.027 206.5,209.5C 206.427,207.973 207.094,206.973 208.5,206.5 Z"/></g>
<g><path style="opacity:0.149" fill="#2d1c32" d="M 208.5,197.5 C 209.461,199.265 209.795,201.265 209.5,203.5C 209.672,204.492 209.338,205.158 208.5,205.5C 208.031,202.661 208.031,199.995 208.5,197.5 Z"/></g>
<g><path style="opacity:0.059" fill="#0e000c" d="M 204.5,191.5 C 206.531,192.539 207.864,194.205 208.5,196.5C 205.95,196.561 204.45,197.894 204,200.5C 203.667,200.167 203.333,199.833 203,199.5C 202.502,202.817 202.335,206.15 202.5,209.5C 203.833,209.5 205.167,209.5 206.5,209.5C 205.365,211.213 203.698,211.88 201.5,211.5C 201.5,204.833 201.5,198.167 201.5,191.5C 202.5,191.5 203.5,191.5 204.5,191.5 Z"/></g>
<g><path style="opacity:0.016" fill="#040308" d="M 238.5,213.5 C 239.833,214.167 239.833,214.167 238.5,213.5 Z"/></g>
<g><path style="opacity:1" fill="#b4639b" d="M 243.5,209.5 C 248.066,206.332 251.4,207.499 253.5,213C 252.188,218.661 248.855,220.328 243.5,218C 239.506,214.934 239.506,212.101 243.5,209.5 Z"/></g>
<g><path style="opacity:1" fill="#f868c5" d="M 243.5,209.5 C 245.833,209.5 248.167,209.5 250.5,209.5C 250.5,211.833 250.5,214.167 250.5,216.5C 243.637,218.257 241.304,215.924 243.5,209.5 Z"/></g>
<g><path style="opacity:0.863" fill="#ab608b" d="M 224.5,211.5 C 223.659,213.379 223.325,215.379 223.5,217.5C 227.5,217.5 231.5,217.5 235.5,217.5C 235.5,216.5 235.5,215.5 235.5,214.5C 236.167,214.5 236.5,214.833 236.5,215.5C 236.67,216.822 236.337,217.989 235.5,219C 231.103,218.549 226.77,218.382 222.5,218.5C 221.99,215.612 222.656,213.279 224.5,211.5 Z"/></g>
<g><path style="opacity:0.35" fill="#585858" d="M 271.5,224.5 C 265.833,224.5 260.167,224.5 254.5,224.5C 254.5,226.833 254.5,229.167 254.5,231.5C 253.5,231.5 252.5,231.5 251.5,231.5C 251.042,228.606 251.709,226.106 253.5,224C 259.681,223.181 265.681,223.347 271.5,224.5 Z"/></g>
<g><path style="opacity:1" fill="#f0f0f0" d="M 246.5,250.5 C 247.167,254.5 247.833,254.5 248.5,250.5C 249.833,250.5 251.167,250.5 252.5,250.5C 252.5,251.833 252.5,253.167 252.5,254.5C 252.608,256.514 251.942,258.18 250.5,259.5C 249.942,260.79 248.942,261.623 247.5,262C 244.304,262.805 241.304,262.638 238.5,261.5C 235.157,257.902 233.657,253.569 234,248.5C 233.184,247.177 232.017,246.511 230.5,246.5C 229.167,249.167 229.167,251.833 230.5,254.5C 231.468,256.607 231.802,258.941 231.5,261.5C 225.833,261.5 220.167,261.5 214.5,261.5C 214.5,259.167 214.5,256.833 214.5,254.5C 215.5,254.5 216.5,254.5 217.5,254.5C 218.132,246.427 217.465,238.76 215.5,231.5C 215.167,231.5 214.833,231.5 214.5,231.5C 214.5,229.167 214.5,226.833 214.5,224.5C 221.655,223.345 228.988,223.178 236.5,224C 244.693,224.895 248.193,229.395 247,237.5C 245.833,240 244,241.833 241.5,243C 244.308,244.793 245.974,247.293 246.5,250.5 Z M 229.5,231.5 C 230.167,231.5 230.833,231.5 231.5,231.5C 232.11,232.391 232.443,233.391 232.5,234.5C 233.87,236.707 233.203,238.374 230.5,239.5C 229.52,236.914 229.187,234.247 229.5,231.5 Z M 230.5,246.5 C 231.53,249.229 231.53,251.896 230.5,254.5C 229.167,251.833 229.167,249.167 230.5,246.5 Z"/></g>
<g><path style="opacity:1" fill="#fafafa" d="M 271.5,224.5 C 271.5,226.833 271.5,229.167 271.5,231.5C 270.5,231.5 269.5,231.5 268.5,231.5C 268.5,238.833 268.5,246.167 268.5,253.5C 270.607,254.468 272.941,254.802 275.5,254.5C 275.5,252.167 275.5,249.833 275.5,247.5C 278.5,247.5 281.5,247.5 284.5,247.5C 284.5,252.167 284.5,256.833 284.5,261.5C 274.5,261.5 264.5,261.5 254.5,261.5C 254.5,259.167 254.5,256.833 254.5,254.5C 255.5,254.5 256.5,254.5 257.5,254.5C 257.5,246.833 257.5,239.167 257.5,231.5C 256.5,231.5 255.5,231.5 254.5,231.5C 254.5,229.167 254.5,226.833 254.5,224.5C 260.167,224.5 265.833,224.5 271.5,224.5 Z"/></g>
<g><path style="opacity:0.175" fill="#3f3f3f" d="M 214.5,224.5 C 214.5,226.833 214.5,229.167 214.5,231.5C 213.275,230.848 212.608,229.681 212.5,228C 212.608,226.319 213.275,225.152 214.5,224.5 Z"/></g>
<g><path style="opacity:0.131" fill="#424242" d="M 215.5,231.5 C 217.465,238.76 218.132,246.427 217.5,254.5C 216.5,254.5 215.5,254.5 214.5,254.5C 215.466,246.92 215.799,239.253 215.5,231.5 Z"/></g>
<g><path style="opacity:0.128" fill="#505050" d="M 254.5,231.5 C 255.5,231.5 256.5,231.5 257.5,231.5C 257.5,239.167 257.5,246.833 257.5,254.5C 256.5,254.5 255.5,254.5 254.5,254.5C 255.117,246.795 255.117,239.128 254.5,231.5 Z"/></g>
<g><path style="opacity:0.198" fill="#4c4c4c" d="M 229.5,231.5 C 229.187,234.247 229.52,236.914 230.5,239.5C 233.203,238.374 233.87,236.707 232.5,234.5C 232.443,233.391 232.11,232.391 231.5,231.5C 235.487,231.652 236.987,233.652 236,237.5C 234.005,239.747 231.505,240.747 228.5,240.5C 228.19,237.287 228.523,234.287 229.5,231.5 Z M 229.5,231.5 C 230.167,231.5 230.833,231.5 231.5,231.5C 232.11,232.391 232.443,233.391 232.5,234.5C 233.87,236.707 233.203,238.374 230.5,239.5C 229.52,236.914 229.187,234.247 229.5,231.5 Z"/></g>
<g><path style="opacity:0.004" fill="#000100" d="M 270.5,250.5 C 271.525,250.897 271.692,251.563 271,252.5C 270.536,251.906 270.369,251.239 270.5,250.5 Z"/></g>
<g><path style="opacity:0.231" fill="#404040" d="M 246.5,250.5 C 247.167,250.5 247.833,250.5 248.5,250.5C 247.833,254.5 247.167,254.5 246.5,250.5 Z"/></g>
<g><path style="opacity:0.227" fill="#4a4a4a" d="M 275.5,247.5 C 275.5,249.833 275.5,252.167 275.5,254.5C 272.941,254.802 270.607,254.468 268.5,253.5C 269.833,253.5 271.167,253.5 272.5,253.5C 272.714,251.856 272.38,250.356 271.5,249C 272.563,247.812 273.897,247.312 275.5,247.5 Z"/></g>
<g><path style="opacity:0.203" fill="#414141" d="M 214.5,254.5 C 214.5,256.833 214.5,259.167 214.5,261.5C 213.275,260.848 212.608,259.681 212.5,258C 212.608,256.319 213.275,255.152 214.5,254.5 Z"/></g>
<g><path style="opacity:0.196" fill="#4e4e4e" d="M 252.5,254.5 C 253.167,254.5 253.833,254.5 254.5,254.5C 254.5,256.833 254.5,259.167 254.5,261.5C 252.801,261.473 251.467,260.806 250.5,259.5C 251.942,258.18 252.608,256.514 252.5,254.5 Z"/></g>
<g><path style="opacity:0.202" fill="#565656" d="M 230.5,246.5 C 232.017,246.511 233.184,247.177 234,248.5C 233.657,253.569 235.157,257.902 238.5,261.5C 236.097,261.607 234.264,260.607 233,258.5C 232.768,259.737 232.268,260.737 231.5,261.5C 231.802,258.941 231.468,256.607 230.5,254.5C 231.53,251.896 231.53,249.229 230.5,246.5 Z"/></g>
</svg>
